<?xml version="1.0" standalone="no"?>
<!DOCTYPE svg PUBLIC "-//W3C//DTD SVG 20010904//EN"
 "http://www.w3.org/TR/2001/REC-SVG-20010904/DTD/svg10.dtd">
<svg version="1.0" xmlns="http://www.w3.org/2000/svg"
 width="30.000000pt" height="30.000000pt" viewBox="0 0 30.000000 30.000000"
 preserveAspectRatio="xMidYMid meet">

<g transform="translate(0.000000,30.000000) scale(0.100000,-0.100000)"
fill="#000000" stroke="none">
<path d="M141 284 c0 -11 3 -14 6 -6 3 7 2 16 -1 19 -3 4 -6 -2 -5 -13z"/>
<path d="M110 215 c-7 -9 -21 -13 -30 -10 -20 6 -50 -19 -50 -41 0 -9 5 -24
10 -35 7 -12 7 -19 1 -19 -16 0 -41 -30 -41 -48 0 -12 4 -9 13 8 7 14 19 25
27 25 8 0 18 4 22 10 4 5 10 6 13 3 4 -4 0 -17 -9 -30 -9 -12 -16 -30 -16 -39
0 -10 -8 -20 -17 -22 -10 -3 43 -5 117 -4 74 0 125 2 113 4 -13 2 -23 10 -23
18 0 7 -2 19 -5 27 -7 20 9 40 28 32 9 -3 18 -15 20 -27 l4 -22 2 22 c1 15 -8
27 -25 36 -17 9 -23 17 -15 21 16 10 14 61 -4 76 -8 6 -23 9 -33 6 -11 -4 -24
0 -32 9 -7 8 -23 15 -35 15 -12 0 -28 -7 -35 -15z m70 -15 c7 -14 7 -20 0 -20
-5 0 -10 5 -10 10 0 7 -6 7 -19 0 -27 -14 -41 -13 -41 4 0 30 55 34 70 6z
m-91 -13 c8 -11 5 -14 -19 -14 -24 0 -27 3 -19 14 6 7 15 13 19 13 4 0 13 -6
19 -13z m159 -6 c3 -10 -1 -12 -14 -8 -19 7 -19 7 0 -7 22 -18 14 -49 -11 -44
-17 3 -28 51 -16 71 7 12 36 4 41 -12z m-69 -10 c18 -12 5 -48 -20 -56 -24 -8
-49 10 -49 35 0 24 43 37 69 21z m-89 -11 c13 -8 13 -11 -2 -27 -17 -16 -19
-16 -35 0 -16 16 -16 19 -3 27 8 5 17 10 20 10 3 0 12 -5 20 -10z m30 -50 c0
-4 -6 -10 -14 -13 -12 -5 -14 2 -7 31 2 7 21 -10 21 -18z m76 4 c-4 -12 -1
-14 14 -9 15 5 20 2 20 -12 0 -10 -4 -14 -8 -8 -4 6 -13 10 -19 11 -34 3 -35
4 -23 19 16 19 24 19 16 -1z m-36 -29 c0 -8 6 -12 14 -9 22 8 56 -14 56 -36 0
-16 -7 -20 -37 -20 l-36 0 24 27 c22 25 22 26 2 9 -18 -14 -23 -16 -23 -5 0
11 -2 11 -10 -1 -8 -13 -10 -12 -11 5 -1 18 -2 18 -6 2 -5 -18 -5 -18 -26 0
-18 14 -17 13 2 -10 l24 -27 -36 0 c-25 0 -37 4 -37 14 0 21 28 46 51 46 10 0
19 5 19 10 0 6 7 10 15 10 8 0 15 -7 15 -15z"/>
</g>
</svg>
