<svg xmlns="http://www.w3.org/2000/svg" width="23.266" height="28.849" viewBox="0 0 23.266 28.849">
  <g id="love" transform="translate(-7 -1)">
    <path id="Path_64973" data-name="Path 64973" d="M32.257,22h-.931a.466.466,0,0,1-.465.465H29V23.4h1.861A1.4,1.4,0,0,0,32.257,22Z" transform="translate(-11.763 -11.228)" fill="#363d4e"/>
    <path id="Path_64974" data-name="Path 64974" d="M29.8,37a1.766,1.766,0,0,0-1.01.314,1.781,1.781,0,0,0-2.27,2.727l1.146,1.147a1.589,1.589,0,0,0,2.247,0l1.147-1.147A1.781,1.781,0,0,0,29.8,37Zm.6,2.383L29.257,40.53a.673.673,0,0,1-.931,0L27.18,39.383a.851.851,0,0,1,.6-1.452.845.845,0,0,1,.6.248l.409.41.409-.41a.851.851,0,0,1,1.453.6.856.856,0,0,1-.249.6Z" transform="translate(-10.159 -19.249)" fill="#363d4e"/>
    <path id="Path_64975" data-name="Path 64975" d="M24.054,14.545l-.2-.589a2.794,2.794,0,0,0,2.171-2.719V11.19A2.331,2.331,0,0,0,27.89,8.91a2.3,2.3,0,0,0-.3-1.128A5.445,5.445,0,0,0,27.89,6a5.006,5.006,0,0,0-5-5h-1.7a3.592,3.592,0,0,0-2.91,1.481l-.227.09a3.584,3.584,0,0,0-2.263,3.343V6a5.445,5.445,0,0,0,.3,1.782,2.292,2.292,0,0,0-.3,1.128,2.331,2.331,0,0,0,1.861,2.28v.047a2.8,2.8,0,0,0,2.17,2.72l-.2.589A8.094,8.094,0,0,0,13,22.471v.4a5.121,5.121,0,0,0,2.792,4.554v2.426h12.1V27.423a5.12,5.12,0,0,0,2.792-4.554v-.4a8.1,8.1,0,0,0-6.627-7.926Zm-3.274-.516H22.9l.307.922a1.465,1.465,0,0,1-2.735,0Zm5.248-3.808V7.6a1.387,1.387,0,0,1,0,2.62ZM16.722,8.91a1.394,1.394,0,0,1,.931-1.31v2.62A1.393,1.393,0,0,1,16.722,8.91Zm.959-2.282a2.313,2.313,0,0,0-.85.346A4.515,4.515,0,0,1,16.722,6V5.914A2.657,2.657,0,0,1,18.4,3.435l.49-.2.08-.121a2.664,2.664,0,0,1,2.221-1.188h1.7A4.074,4.074,0,0,1,26.959,6a4.518,4.518,0,0,1-.11.974,2.313,2.313,0,0,0-1.286-.39H22.772a2.329,2.329,0,0,1-2.327-2.327V3.792h-.931v.465a3.267,3.267,0,0,0,.032.429l-.3.1a2.323,2.323,0,0,0-1.562,1.84Zm.9,4.609V6.995a1.4,1.4,0,0,1,.954-1.325l.261-.087a3.26,3.26,0,0,0,2.972,1.932H25.1v3.723A1.863,1.863,0,0,1,23.237,13.1H20.445A1.863,1.863,0,0,1,18.584,11.237Zm8.376,17.682H16.722V27.79a5.1,5.1,0,0,0,1.4.2H19.98a2.318,2.318,0,0,0,1.861-.945,2.318,2.318,0,0,0,1.861.945h1.861a5.1,5.1,0,0,0,1.4-.2Zm-8.376-4,.249-.249a1.4,1.4,0,0,1,.987-.409h.16a1.4,1.4,0,0,1,0,2.792h-1.4ZM25.1,27.058H23.7a1.4,1.4,0,1,1,0-2.792h.16a1.4,1.4,0,0,1,.987.409l.249.249Zm4.653-4.188a4.192,4.192,0,0,1-3.723,4.16V25.149a2.331,2.331,0,0,0,1.861-2.28v-1.4h-.931v1.4a1.4,1.4,0,0,1-1.215,1.384l-.238-.237a2.312,2.312,0,0,0-1.645-.682H23.7a2.318,2.318,0,0,0-1.861.945,2.318,2.318,0,0,0-1.861-.945h-.16a2.312,2.312,0,0,0-1.645.682l-.238.237a1.4,1.4,0,0,1-1.215-1.384v-1.4h-.931v1.4a2.331,2.331,0,0,0,1.861,2.28V27.03a4.192,4.192,0,0,1-3.722-4.16v-.4a7.155,7.155,0,0,1,5.762-6.983,2.4,2.4,0,0,0,4.3,0,7.154,7.154,0,0,1,5.762,6.983Z" transform="translate(-3.208)" fill="#363d4e"/>
    <path id="Path_64976" data-name="Path 64976" d="M47,25h4.653v.931H47Z" transform="translate(-21.388 -12.833)" fill="#363d4e"/>
    <path id="Path_64977" data-name="Path 64977" d="M0,0H4.653V.931H0Z" transform="translate(24.909 9.529) rotate(-22.514)" fill="#363d4e"/>
    <path id="Path_64978" data-name="Path 64978" d="M0,0H.931V4.653H0Z" transform="translate(7.71 8.612) rotate(-67.486)" fill="#363d4e"/>
    <path id="Path_64979" data-name="Path 64979" d="M7,25h4.653v.931H7Z" transform="translate(0 -12.833)" fill="#363d4e"/>
    <path id="Path_64980" data-name="Path 64980" d="M0,0H4.653V.931H0Z" transform="translate(7.712 16.656) rotate(-22.514)" fill="#363d4e"/>
    <path id="Path_64981" data-name="Path 64981" d="M0,0H.931V4.653H0Z" transform="translate(24.912 15.734) rotate(-67.486)" fill="#363d4e"/>
  </g>
</svg>
