<svg xmlns="http://www.w3.org/2000/svg" width="29.605" height="26.69" viewBox="0 0 29.605 26.69">
  <path id="friends" d="M16.527,44.134a1.48,1.48,0,0,0-2.249-.664l-3.707,2.688a.985.985,0,0,1-1.159,0L7.38,44.685a3.056,3.056,0,0,0,.75-1.765,6.606,6.606,0,0,0,8.461-6.28c0-.011,0-4.043,0-4.054a3.458,3.458,0,0,0-3.454-3.454H6.846a3.458,3.458,0,0,0-3.453,3.454v3.2a1.019,1.019,0,0,1-.555-.9V31.241C3.318,27.59,6.21,25.3,9.823,24.65A10.352,10.352,0,0,0,14.2,27.145a4.269,4.269,0,0,1,2.948,4.065v3.645a.493.493,0,1,0,.987,0V31.209a5.254,5.254,0,0,0-3.628-5,9.331,9.331,0,0,1-4.162-2.431.493.493,0,0,0-.426-.142c-1.17.177-5.139,1.028-7.1,4.535a8.217,8.217,0,0,0-.971,3.04v3.672A2.013,2.013,0,0,0,3.4,36.832a6.61,6.61,0,0,0,3.758,5.714A2.061,2.061,0,0,1,6.578,44.1l-.872-.633a1.48,1.48,0,0,0-2.249.663l-.4,1.02A5.092,5.092,0,0,0,0,49.825a.493.493,0,0,0,.987,0,4.133,4.133,0,0,1,2.506-3.782l1.684.429a.493.493,0,1,0,.244-.956l-1.312-.334.267-.69a.493.493,0,0,1,.75-.221l3.707,2.688a1.97,1.97,0,0,0,2.317,0l3.707-2.688a.493.493,0,0,1,.75.221l.267.69-1.311.334a.493.493,0,1,0,.244.956l1.762-.449a.494.494,0,0,0,.43-.671ZM4.379,36.588v-4a2.47,2.47,0,0,1,2.467-2.467h6.291A2.47,2.47,0,0,1,15.6,32.586v4a5.613,5.613,0,0,1-11.225,0ZM18.8,46.565a5.1,5.1,0,0,1,1.18,3.26.493.493,0,1,1-.987,0,4.11,4.11,0,0,0-.951-2.628.493.493,0,1,1,.758-.632Zm3.647-4.019v.13a2.057,2.057,0,0,0,1.239,1.886.493.493,0,0,1,.286.557,4.633,4.633,0,0,1-2.256,2.426.493.493,0,0,1-.44-.883,3.758,3.758,0,0,0,1.555-1.445,3.042,3.042,0,0,1-1.361-2.3,6.608,6.608,0,0,1-4.383-.232.493.493,0,0,1,.378-.912,5.62,5.62,0,0,0,7.758-5.188v-4a2.47,2.47,0,0,0-2.467-2.467H20.291a.493.493,0,0,1,0-.987h2.467a3.458,3.458,0,0,1,3.454,3.454v3.2a1.111,1.111,0,0,0,.617-.993c0-2.739-.213-4.564,1.071-6.91l-2.549-1.02a.493.493,0,0,1-.31-.458V25.385l-3.447.94a.493.493,0,0,1-.594-.31l-.44-1.233-2.35,1a.493.493,0,0,1-.387-.908l2.832-1.209a.494.494,0,0,1,.391,0c.254.111.236.2.73,1.583l3.63-.99a.494.494,0,0,1,.623.476V26.07L28.8,27.179a.494.494,0,0,1,.233.724,7.735,7.735,0,0,0-1.218,4.17v2.719a2.1,2.1,0,0,1-1.608,2.039A6.61,6.61,0,0,1,22.45,42.546Zm-4.484-3.61a.493.493,0,0,1,.7-.016,1.354,1.354,0,0,0,1.86.006.493.493,0,1,1,.677.718,2.34,2.34,0,0,1-3.218-.011A.493.493,0,0,1,17.967,38.936Zm-6.387.708a2.34,2.34,0,0,1-3.218-.011.493.493,0,0,1,.681-.714,1.354,1.354,0,0,0,1.86.006.493.493,0,1,1,.677.718ZM29.6,49.825a.493.493,0,1,1-.987,0,4.113,4.113,0,0,0-3.028-3.963.493.493,0,1,1,.258-.952A5.1,5.1,0,0,1,29.6,49.825Z" transform="translate(0 -23.629)" fill="#363d4e"/>
</svg>
