<?xml version="1.0" standalone="no"?>
<!DOCTYPE svg PUBLIC "-//W3C//DTD SVG 20010904//EN"
 "http://www.w3.org/TR/2001/REC-SVG-20010904/DTD/svg10.dtd">
<svg version="1.0" xmlns="http://www.w3.org/2000/svg"
 width="29.000000pt" height="27.000000pt" viewBox="0 0 29.000000 27.000000"
 preserveAspectRatio="xMidYMid meet">

<g transform="translate(0.000000,27.000000) scale(0.100000,-0.100000)"
fill="#000000" stroke="none">
<path d="M25 245 c-44 -43 -27 -88 52 -140 48 -32 52 -38 42 -56 -6 -11 -8
-28 -5 -36 6 -14 9 -14 26 2 11 10 20 25 20 33 0 8 27 40 60 71 44 42 60 63
60 83 0 56 -67 81 -111 42 -15 -13 -21 -13 -50 5 -44 27 -65 26 -94 -4z m98
-20 l25 -26 26 26 c41 41 86 28 86 -24 0 -17 -16 -40 -52 -73 -29 -26 -56 -48
-60 -48 -11 0 -64 37 -100 69 -30 26 -37 68 -16 89 20 20 64 14 91 -13z"/>
</g>
</svg>
