<svg xmlns="http://www.w3.org/2000/svg" width="12.889" height="17.169" viewBox="0 0 12.889 17.169">
  <g id="delete" transform="translate(-63.818)">
    <path id="Path_65159" data-name="Path 65159" d="M75.6,2.9l-3.149.9-.01,0a.839.839,0,0,0-.563.792v.913H68.766l3.556-3.556a.5.5,0,0,0,0-.711l-.9-.9a1.175,1.175,0,0,0-1.66,0l-.927.927L68.36.8a1.343,1.343,0,0,0-1.9,0l-1.85,1.85a1.343,1.343,0,0,0,0,1.9l.474.474-.927.927a1.175,1.175,0,0,0,0,1.66l.9.9a.5.5,0,0,0,.711,0l1.275-1.275v7.76a2.182,2.182,0,0,0,2.18,2.18h5.3a2.182,2.182,0,0,0,2.18-2.18V3.7A.839.839,0,0,0,75.6,2.9Zm-10.275.454,1.85-1.85a.336.336,0,0,1,.474,0l.474.474L65.8,4.305l-.474-.474A.336.336,0,0,1,65.325,3.357Zm.093,4.081-.545-.545a.168.168,0,0,1,0-.237l5.6-5.6a.168.168,0,0,1,.237,0l.545.545ZM75.7,14.99a1.175,1.175,0,0,1-1.174,1.174h-5.3a1.175,1.175,0,0,1-1.174-1.174V6.518H75.7Zm0-9.45-2.818-.027V4.721L75.7,3.928Z" fill="#c2a3dd"/>
    <path id="Path_65160" data-name="Path 65160" d="M222.934,240.407a.5.5,0,0,0,.5-.5v-6.023a.5.5,0,1,0-1.006,0V239.9A.5.5,0,0,0,222.934,240.407Z" transform="translate(-153.294 -225.552)" fill="#c2a3dd"/>
    <path id="Path_65161" data-name="Path 65161" d="M289.675,240.407a.5.5,0,0,0,.5-.5v-6.023a.5.5,0,1,0-1.006,0V239.9A.5.5,0,0,0,289.675,240.407Z" transform="translate(-217.797 -225.552)" fill="#c2a3dd"/>
    <path id="Path_65162" data-name="Path 65162" d="M356.415,240.407a.5.5,0,0,0,.5-.5v-6.023a.5.5,0,1,0-1.006,0V239.9A.5.5,0,0,0,356.415,240.407Z" transform="translate(-282.299 -225.552)" fill="#c2a3dd"/>
  </g>
</svg>
