<svg id="cheers" xmlns="http://www.w3.org/2000/svg" width="20.294" height="24.492" viewBox="0 0 20.294 24.492">
  <path id="Path_65006" data-name="Path 65006" d="M284.454,6.347A.459.459,0,0,0,285,6l.444-1.975a.46.46,0,1,0-.9-.2L284.106,5.8A.46.46,0,0,0,284.454,6.347Z" transform="translate(-270.203 -3.303)" fill="#6b00c3"/>
  <path id="Path_65007" data-name="Path 65007" d="M220.959,2.417a.46.46,0,1,0,.777-.492L220.656.215a.46.46,0,1,0-.777.492Z" transform="translate(-208.873 0)" fill="#6b00c3"/>
  <path id="Path_65008" data-name="Path 65008" d="M325.379,34.077a.457.457,0,0,0,.245-.071l1.71-1.083a.46.46,0,0,0-.491-.778l-1.71,1.083a.46.46,0,0,0,.246.849Z" transform="translate(-309.148 -30.598)" fill="#6b00c3"/>
  <path id="Path_65009" data-name="Path 65009" d="M54.981,70.283l-2.91-1.255-.933-3.488a5.1,5.1,0,0,0,2.788-2.56,4.305,4.305,0,0,0,.107-3.558l-.043-.1-2-4.481a.459.459,0,0,0-.538-.257l-4.4,1.18.067-.652a.46.46,0,0,0-.335-.491l-1.439-.4a.46.46,0,0,0-.244.887l1.064.294-.2,1.9a4.582,4.582,0,0,0-4.2.224,3.71,3.71,0,0,1-3.508.066l1.718-3.846,1.16.311a.46.46,0,0,0,.238-.889l-1.539-.413a.459.459,0,0,0-.539.257l-2,4.482a4.3,4.3,0,0,0,.065,3.655,5.1,5.1,0,0,0,2.789,2.562L39.22,67.2l-2.911,1.254a1.282,1.282,0,0,0,.206,2.447l.008,0,4.069,1.091.007,0a1.634,1.634,0,0,0,.4.05,1.243,1.243,0,0,0,1.062-.545A1.324,1.324,0,0,0,42,69.983l-1.894-2.543.933-3.488a4.927,4.927,0,0,0,.816.068,5.1,5.1,0,0,0,2.879-.89q.111-.077.217-.159a4.395,4.395,0,0,0,1.785,2.106,5.153,5.153,0,0,0,2.706.768,4.921,4.921,0,0,0,.806-.066l.933,3.488-1.894,2.543a1.324,1.324,0,0,0-.058,1.52,1.244,1.244,0,0,0,1.063.546,1.635,1.635,0,0,0,.4-.05l.008,0,4.069-1.092.008,0a1.281,1.281,0,0,0,.208-2.446ZM46.952,56.745l4.358-1.169,1.717,3.845a3.709,3.709,0,0,1-3.508-.067,4.428,4.428,0,0,0-2.775-.6ZM41.295,70.992a.424.424,0,0,1-.468.113l-4.06-1.088c-.126-.037-.335-.128-.348-.333a.406.406,0,0,1,.255-.383l2.782-1.2,1.81,2.431A.406.406,0,0,1,41.295,70.992Zm2.92-8.621a4.2,4.2,0,0,1-3.386.594h0a4.209,4.209,0,0,1-2.635-2.21,3.424,3.424,0,0,1-.256-2.293,4.568,4.568,0,0,0,2.04.467,4.266,4.266,0,0,0,2.288-.627,3.7,3.7,0,0,1,3.6-.014L45.7,59.9a3.39,3.39,0,0,1-1.487,2.47Zm3.009,1.924a3.443,3.443,0,0,1-1.539-2.038A4.251,4.251,0,0,0,46.616,60l.031-.3a3.53,3.53,0,0,1,2.376.434,4.267,4.267,0,0,0,2.29.628,4.566,4.566,0,0,0,2.039-.467,3.423,3.423,0,0,1-.256,2.293,4.206,4.206,0,0,1-2.634,2.208h0A4.174,4.174,0,0,1,47.224,64.295Zm7.3,7.548-4.06,1.09A.424.424,0,0,1,50,72.819a.406.406,0,0,1,.03-.459l1.81-2.431,2.782,1.2a.4.4,0,0,1,.254.381C54.859,71.715,54.65,71.806,54.523,71.843Z" transform="translate(-35.498 -49.383)" fill="#6b18c3"/>
  <path id="Path_65010" data-name="Path 65010" d="M193.141,73.9a.46.46,0,0,0,0-.92h0a.46.46,0,0,0,0,.92Z" transform="translate(-182.994 -69.623)" fill="#6b00c3"/>
</svg>
