<svg id="Education" xmlns="http://www.w3.org/2000/svg" width="28.19" height="23.484" viewBox="0 0 28.19 23.484">
  <path id="Path_65030" data-name="Path 65030" d="M27.116,51.237l-11.439-5a3.965,3.965,0,0,0-3.167,0l-11.436,5a1.821,1.821,0,0,0,0,3.322l1.352.591c0,.014,0,.029,0,.043v6.525a1.359,1.359,0,0,0-.565,2.174,1.444,1.444,0,0,0-.415.9L1.12,68.422a.9.9,0,0,0,.224.68.866.866,0,0,0,.644.29H3.7a.866.866,0,0,0,.644-.29.9.9,0,0,0,.224-.68l-.324-3.634a1.444,1.444,0,0,0-.415-.9,1.359,1.359,0,0,0-.565-2.174v-6.2l2.308,1.009q0,.021,0,.043v3.285c0,1.371.92,2.639,2.592,3.572a12.394,12.394,0,0,0,5.93,1.376,12.394,12.394,0,0,0,5.93-1.376c1.671-.932,2.592-2.2,2.592-3.572V56.57q0-.022,0-.043l4.5-1.968a1.821,1.821,0,0,0,0-3.322ZM3.723,68.522a.026.026,0,0,1-.021.009H1.988a.026.026,0,0,1-.021-.009A.027.027,0,0,1,1.96,68.5l.324-3.634a.563.563,0,0,1,1.123,0L3.73,68.5A.027.027,0,0,1,3.723,68.522Zm-.878-5.039A.488.488,0,1,1,3.323,63,.483.483,0,0,1,2.845,63.483Zm18.928-5.464c0,1.113-.9,2.2-2.463,2.98a.434.434,0,0,0-.193.576.421.421,0,0,0,.379.241.413.413,0,0,0,.185-.044,6.431,6.431,0,0,0,2.06-1.549,3.8,3.8,0,0,1-2.121,2.448,11.557,11.557,0,0,1-5.525,1.27,11.557,11.557,0,0,1-5.525-1.27,3.808,3.808,0,0,1-2.119-2.438,6.181,6.181,0,0,0,1.714,1.357,12.394,12.394,0,0,0,5.93,1.376,14.812,14.812,0,0,0,1.852-.115.429.429,0,0,0,.367-.48A.423.423,0,0,0,15.843,62a13.975,13.975,0,0,1-1.748.109,11.557,11.557,0,0,1-5.525-1.27c-1.388-.774-2.153-1.775-2.153-2.817V56.894l6.1,2.665a3.965,3.965,0,0,0,3.167,0l6.094-2.664v1.125Zm5.01-4.251-11.437,5a3.133,3.133,0,0,1-2.5,0L4.1,54.947l8.009-1.421a2.593,2.593,0,0,0,1.982.72c1.267,0,2.222-.58,2.222-1.348s-.955-1.348-2.222-1.348c-1.15,0-2.044.478-2.2,1.142L2.773,54.31a.415.415,0,0,0-.077.022l-1.29-.564a.954.954,0,0,1,0-1.74l11.436-5a3.133,3.133,0,0,1,2.5,0l11.439,5a.954.954,0,0,1,0,1.74ZM12.717,52.9c0-.125.474-.488,1.378-.488s1.378.362,1.378.488-.474.488-1.378.488S12.717,53.023,12.717,52.9Z" transform="translate(0 -45.908)" fill="#6b00c3"/>
</svg>
