<svg id="Introvert" xmlns="http://www.w3.org/2000/svg" width="22.14" height="19.805" viewBox="0 0 22.14 19.805">
  <g id="Group_57378" data-name="Group 57378">
    <path id="Path_65034" data-name="Path 65034" d="M20.842,61.458a1.3,1.3,0,0,0-1.3,1.3v.216a3.681,3.681,0,0,1-3.05,3.621,2.073,2.073,0,0,0,.358-1.167v-.3a2.084,2.084,0,0,0-4.169,0v.3a2.072,2.072,0,0,0,.341,1.141,3.682,3.682,0,0,1-2.913-3.6v-.216a1.3,1.3,0,0,0-2.594,0v.216a6.218,6.218,0,0,0,.523,2.511H5.1V61.127a.432.432,0,0,0-.314-.416,5.43,5.43,0,0,1-3.921-5.2V55.3a.432.432,0,1,1,.865,0v.216a4.546,4.546,0,0,0,4.54,4.54H8.351a4.546,4.546,0,0,0,4.54-4.54V55.3a.432.432,0,1,1,.865,0v.216a5.367,5.367,0,0,1-.356,1.93.432.432,0,0,0,.807.31,6.229,6.229,0,0,0,.413-2.239V55.3a1.3,1.3,0,1,0-2.594,0v.216a3.681,3.681,0,0,1-3.05,3.621,2.072,2.072,0,0,0,.358-1.167v-.3a2.084,2.084,0,1,0-4.169,0v.3a2.071,2.071,0,0,0,.341,1.141,3.681,3.681,0,0,1-2.913-3.6V55.3A1.3,1.3,0,0,0,0,55.3v.216A6.208,6.208,0,0,0,1.291,59.32a6.336,6.336,0,0,0,2.944,2.124v4.47a.432.432,0,0,0,.432.432h.079v7.025a.432.432,0,1,0,.865,0V66.347h2.9q.142.22.3.431c.029.037.058.074.088.11v6.484a.432.432,0,1,0,.865,0v-5.6a6.321,6.321,0,0,0,1.991,1.13v4.47a.432.432,0,1,0,.865,0V68.585a.432.432,0,0,0-.314-.416,5.43,5.43,0,0,1-3.921-5.2v-.216a.432.432,0,0,1,.865,0v.216a4.546,4.546,0,0,0,4.54,4.54H15.87a4.546,4.546,0,0,0,4.54-4.54v-.216a.432.432,0,0,1,.865,0v.216a5.413,5.413,0,0,1-4.012,5.223.432.432,0,0,0-.321.418v3.131a.432.432,0,0,0,.865,0V68.935a6.28,6.28,0,0,0,4.333-5.964v-.216A1.3,1.3,0,0,0,20.842,61.458ZM6.031,57.667a1.22,1.22,0,1,1,2.439,0v.3a1.22,1.22,0,0,1-2.439,0Zm9.958,7.758a1.22,1.22,0,0,1-2.439,0v-.3a1.22,1.22,0,0,1,2.439,0Z" transform="translate(0 -54)" fill="#6b00c3"/>
  </g>
</svg>
