<svg id="Job" xmlns="http://www.w3.org/2000/svg" width="24.368" height="24.358" viewBox="0 0 24.368 24.358">
  <g id="businessman">
    <path id="businessman-2" data-name="businessman" d="M24.582,15.951H22.224V14.772a1.181,1.181,0,0,0-1.179-1.179h-3.93a1.174,1.174,0,0,0-.858.375l-4.251-.708v-.985a3.929,3.929,0,0,0,1.965-3.4h.393a1.179,1.179,0,0,0,0-2.358h-.189l.215-.5a3.174,3.174,0,0,0-1.6-4.147l-1.1-.5a4.03,4.03,0,0,0-4.021.436l-.62.465h0A2.445,2.445,0,0,0,5.476,5.737l.39.781h-.15a1.179,1.179,0,0,0,0,2.358h.393a3.929,3.929,0,0,0,1.965,3.4v.985l-4.776.8A2.742,2.742,0,0,0,1,16.77v8.221a.393.393,0,0,0,.393.393H24.582a.787.787,0,0,0,.786-.786V16.737A.787.787,0,0,0,24.582,15.951Zm-3.144-1.179v1.179H18.949a2.754,2.754,0,0,0-1.273-1.572h3.369A.393.393,0,0,1,21.438,14.772Zm-4.716.077a1.963,1.963,0,0,1,1.387,1.1H16.722ZM14.756,7.7a.394.394,0,0,1-.393.393H13.97V7.3h.393A.394.394,0,0,1,14.756,7.7ZM6.241,3.787a1.671,1.671,0,0,1,1.425-.807A1.837,1.837,0,0,1,9.2,3.8l.123.185.654-.436L9.85,3.363A2.618,2.618,0,0,0,8.368,2.293a3.23,3.23,0,0,1,3-.206l1.1.5a2.388,2.388,0,0,1,1.2,3.12l-.026.061-.5-1a.393.393,0,0,0-.588-.139l-.629.472a3.144,3.144,0,0,1-3.773,0l-.629-.472a.393.393,0,0,0-.588.139L6.4,5.836l-.225-.45a1.654,1.654,0,0,1,.061-1.6Zm-.524,4.3a.393.393,0,1,1,0-.786h.393V8.09ZM6.9,8.876V6.611l.534-1.068.252.189a3.93,3.93,0,0,0,4.716,0l.252-.189.534,1.068V8.876a3.144,3.144,0,0,1-6.289,0Zm3.144,3.93a3.912,3.912,0,0,0,1.179-.181v.8L10.04,14.609,8.861,13.43v-.8A3.912,3.912,0,0,0,10.04,12.807ZM9.913,17.13h.254l.641,1.6-.768,3.33-.768-3.33Zm.872-1.63-.562.844H9.857L9.294,15.5l.131-.393.336.336a.393.393,0,0,0,.556,0l.336-.336ZM5.716,24.6V17.916H4.93V24.6H1.786V16.77a1.96,1.96,0,0,1,1.642-1.939l4.9-.817.471.471-.316.949a.392.392,0,0,0,.046.342l.671,1.007L8.5,18.556a.4.4,0,0,0-.018.234L9.657,23.9a.393.393,0,0,0,.766,0L11.6,18.791a.4.4,0,0,0-.018-.234l-.709-1.773.671-1.007a.394.394,0,0,0,.046-.342l-.316-.949.471-.471,4.195.7c0,.02-.006.039-.006.059v1.179H13.577a.787.787,0,0,0-.786.786V24.6Zm8.254,0h-.393v-.786H24.583V24.6Zm10.612-1.572H13.577V19.838a2.741,2.741,0,0,0,1.965.83H17.9v.393a1.179,1.179,0,1,0,2.358,0v-.393h2.358a2.743,2.743,0,0,0,1.966-.83Zm-5.9-1.965V19.1h.786V21.06a.393.393,0,1,1-.786,0Zm5.9-3.144a1.967,1.967,0,0,1-1.965,1.965H20.259V18.7a.393.393,0,0,0-.393-.393H18.294a.393.393,0,0,0-.393.393v1.179H15.542a1.967,1.967,0,0,1-1.965-1.965V16.737H24.582Z" transform="translate(-1 -1.025)" fill="#6b00c3"/>
  </g>
</svg>
