<svg id="Kids" xmlns="http://www.w3.org/2000/svg" width="22.994" height="17.085" viewBox="0 0 22.994 17.085">
  <path id="Path_65026" data-name="Path 65026" d="M21.6,74.142a1.561,1.561,0,0,0-.243-1.7.335.335,0,0,0,.062-.194,6.484,6.484,0,0,0-.25-2.441.337.337,0,0,0-.636.222,4.965,4.965,0,0,1,.212,1.881H18.67A1.77,1.77,0,0,1,16.9,70.142a.337.337,0,1,0-.674,0,1.769,1.769,0,0,1-1.767,1.767H12.386v-.627a3.8,3.8,0,0,1,3.8-3.8.046.046,0,0,1,.046.046.337.337,0,0,0,.674,0,.046.046,0,0,1,.046-.046,3.8,3.8,0,0,1,2.863,1.3.337.337,0,1,0,.508-.443,4.471,4.471,0,0,0-3.37-1.534.716.716,0,0,0-.383.111.716.716,0,0,0-.383-.111,4.475,4.475,0,0,0-4.47,4.47v.964a.335.335,0,0,0,.062.194,1.567,1.567,0,0,0-.272.434,1.7,1.7,0,0,0-.665-1.218V70.373a4.587,4.587,0,0,0-4.582-4.582,8.92,8.92,0,0,0-1.244.057,3.826,3.826,0,0,0-2.916,1.73L1.08,67.255a.337.337,0,0,0-.439.3,15.854,15.854,0,0,0,.3,3.928,1.71,1.71,0,0,0,.541,3.225A4.374,4.374,0,0,0,3.5,77.475H2.8A2.114,2.114,0,0,0,.684,79.587v2.952a.337.337,0,0,0,.337.337h.56a.337.337,0,0,0,0-.674H1.358V79.587A1.44,1.44,0,0,1,2.8,78.149h.98a2.013,2.013,0,0,0,3.969,0h.98a1.44,1.44,0,0,1,1.438,1.438V82.2H3.152a.337.337,0,0,0,0,.674H10.5a.337.337,0,0,0,.337-.337V79.587a2.1,2.1,0,0,0-.155-.793h.541a2.5,2.5,0,0,0,.957-.19,2.045,2.045,0,0,0-.329,1.114v2.82a.337.337,0,0,0,.337.337h8.778a.337.337,0,0,0,.337-.337v-2.82a2.045,2.045,0,0,0-.321-1.1,2.5,2.5,0,0,0,.927.178h.749a.337.337,0,0,0,.337-.337V76.394A2.535,2.535,0,0,0,21.6,74.142Zm-7.138-1.558a2.442,2.442,0,0,0,2.1-1.2,2.442,2.442,0,0,0,2.1,1.2h1.514a.892.892,0,1,1-.036,1.783.336.336,0,0,0-.346.281,3.284,3.284,0,0,1-6.084,1.09A.337.337,0,0,0,13.7,75.7a3.26,3.26,0,0,1-.311-.776l0-.016c-.019-.076-.037-.157-.054-.258a.337.337,0,0,0-.346-.281.892.892,0,1,1-.036-1.783h1.514Zm2.11,6.89a1.164,1.164,0,0,1-1.162-1.162v-.427a3.969,3.969,0,0,0,2.325,0v.43a1.164,1.164,0,0,1-1.1,1.161Zm-2.662-1.813h0a2.049,2.049,0,0,0-.66.109,2.507,2.507,0,0,0,.435-.961,3.91,3.91,0,0,0,1.052.8v.053Zm4.5-.059a3.922,3.922,0,0,0,1.04-.793,2.507,2.507,0,0,0,.428.951,4.331,4.331,0,0,0-1.469-.1V77.6ZM1.3,68.033l.84.269a.337.337,0,0,0,.4-.158A3.155,3.155,0,0,1,5.063,66.52a8.462,8.462,0,0,1,1.191-.055,3.913,3.913,0,0,1,3.908,3.908v.973a43.509,43.509,0,0,0-4.821-.038,2.255,2.255,0,0,1-2.21-1.818.337.337,0,0,0-.577-.165A4.385,4.385,0,0,0,1.545,71.1,14.9,14.9,0,0,1,1.3,68.033Zm.795,6.3a.337.337,0,0,0-.332-.281H1.71a1.036,1.036,0,0,1-.038-2.072h.084A.336.336,0,0,0,2.1,71.7a3.673,3.673,0,0,1,.47-1.279q.05-.084.1-.165a2.933,2.933,0,0,0,2.669,1.726h4.5a1.047,1.047,0,0,1,.481.144l.008,0A1.037,1.037,0,0,1,9.8,74.053H9.756a.338.338,0,0,0-.346.281,3.707,3.707,0,0,1-7.312,0ZM5.693,79.15a1.341,1.341,0,0,1-1.264-1.2s0-.01,0-.015,0-.029,0-.044a4.409,4.409,0,0,0,2.673,0,1.341,1.341,0,0,1-1.4,1.262Zm3.032-1.675H8a4.374,4.374,0,0,0,2.017-2.763,1.715,1.715,0,0,0,1.37-1.073,1.552,1.552,0,0,0,.141.5,2.535,2.535,0,0,0-1.395,2.253v1.624A2.1,2.1,0,0,0,8.724,77.475Zm2.086.645V76.394a1.856,1.856,0,0,1,1.146-1.707,1.579,1.579,0,0,0,.763.337,3.985,3.985,0,0,0,.348.922v.33a1.847,1.847,0,0,1-1.845,1.845H10.81ZM20.629,82.2h-8.1V79.718a1.386,1.386,0,0,1,1.384-1.384h.826a1.836,1.836,0,0,0,3.672,0h.838a1.386,1.386,0,0,1,1.384,1.384V82.2Zm1.692-4.082h-.412a1.847,1.847,0,0,1-1.845-1.845v-.33a3.983,3.983,0,0,0,.348-.922,1.564,1.564,0,0,0,.73-.312l.032-.025a1.856,1.856,0,0,1,1.146,1.707Z" transform="translate(0 -65.791)" fill="#6b00c3"/>
</svg>
