<svg id="languages" xmlns="http://www.w3.org/2000/svg" width="24.48" height="24.48" viewBox="0 0 24.48 24.48">
  <g id="XMLID_969_">
    <path id="XMLID_1003_" d="M257.478,53.221a.478.478,0,0,0,0,.956h1.572a5.244,5.244,0,0,0,1,3.069,4.292,4.292,0,0,1-2.466,1.19.478.478,0,0,0,.059.953.485.485,0,0,0,.06,0,5.245,5.245,0,0,0,2.977-1.417,5.245,5.245,0,0,0,2.977,1.417.484.484,0,0,0,.06,0,.478.478,0,0,0,.059-.953,4.292,4.292,0,0,1-2.466-1.19,5.245,5.245,0,0,0,1-3.069h1.572a.478.478,0,0,0,0-.956H261.16V51.978a.478.478,0,0,0-.956,0v1.243Zm3.2,3.251a4.287,4.287,0,0,1-.675-2.3h1.35A4.286,4.286,0,0,1,260.682,56.473Z" transform="translate(-244.712 -49.038)" fill="#6b00c3"/>
    <path id="XMLID_1023_" d="M21.944,0H18.121a.478.478,0,0,0,0,.956h3.823a1.581,1.581,0,0,1,1.58,1.58v7.742a1.581,1.581,0,0,1-1.58,1.58.478.478,0,0,0-.478.478v2.023l-2.8-2.387a.478.478,0,0,0-.31-.115H9.995a1.581,1.581,0,0,1-1.58-1.58V2.536A1.581,1.581,0,0,1,9.995.956h3.823a.478.478,0,1,0,0-.956H9.995A2.539,2.539,0,0,0,7.459,2.536v6.07H2.536A2.539,2.539,0,0,0,0,11.142v7.742a2.54,2.54,0,0,0,2.058,2.491V24a.478.478,0,0,0,.789.364L6.3,21.42h8.189a2.539,2.539,0,0,0,2.536-2.536v-6.07h1.162l3.45,2.945a.478.478,0,0,0,.789-.364V12.769a2.54,2.54,0,0,0,2.058-2.491V2.536A2.539,2.539,0,0,0,21.944,0ZM8.518,13.364l.947,2.51h-1.9Zm7.547,5.52a1.581,1.581,0,0,1-1.58,1.58H6.12a.478.478,0,0,0-.31.115l-2.8,2.387V20.942a.478.478,0,0,0-.478-.478,1.581,1.581,0,0,1-1.58-1.58V11.142a1.581,1.581,0,0,1,1.58-1.58H7.459v.715a2.525,2.525,0,0,0,.628,1.668.6.6,0,0,0-.124.19l0,.011L5.912,17.52a.478.478,0,1,0,.894.34L7.2,16.83H9.826l.388,1.029a.478.478,0,1,0,.895-.338L9.3,12.715a2.528,2.528,0,0,0,.7.1h6.071Z" transform="translate(0 0)" fill="#6b00c3"/>
    <path id="XMLID_1025_" d="M324.478.956a.478.478,0,0,0,.478-.478.478.478,0,1,0-.816.338A.482.482,0,0,0,324.478.956Z" transform="translate(-308.509 0)" fill="#6b00c3"/>
  </g>
</svg>
