<svg id="Pets" xmlns="http://www.w3.org/2000/svg" width="23.048" height="20.196" viewBox="0 0 23.048 20.196">
  <g id="Group_57400" data-name="Group 57400">
    <path id="Path_65063" data-name="Path 65063" d="M22.622,71.853a3.624,3.624,0,0,0-2.587-1.713.379.379,0,0,0-.051,0H15.918l-.161-.16a2.962,2.962,0,0,0,.589-.279,2.932,2.932,0,0,0,.49-.384l1.506.427.211-.733-1.2-.341a3.316,3.316,0,0,0,.315-.706.383.383,0,0,0,.017-.11v-.783l.92-.391-.3-.7-.617.263v-.293a.378.378,0,0,0-.055-.2l-1.152-1.905a.385.385,0,0,0-.282-.182.393.393,0,0,0-.318.109L14.832,64.8h-.225v-4.8l.543-.539h.493l1.056.7a.386.386,0,0,0,.533-.106L18,58.916a.378.378,0,0,0,0-.423l-1.536-2.286a.385.385,0,0,0-.32-.17H14.991a.385.385,0,0,0-.344.211l-.662,1.314H9.851l-.662-1.314a.384.384,0,0,0-.343-.211H7.309A.384.384,0,0,0,7,56.2l-1.92,2.667a.379.379,0,0,0,.041.491l.768.762a.387.387,0,0,0,.485.048l1.055-.7H8.3l.159.158v4.142a8.379,8.379,0,0,0-4.968,4.71,7.963,7.963,0,0,0-.287,4.642l-.891-.53V71.279a1.136,1.136,0,0,0-.637-1.022A1.152,1.152,0,0,0,.011,71.279v2.667a.381.381,0,0,0,.181.323l3.073,1.905a.387.387,0,0,0,.2.058H20.752a.388.388,0,0,0,.172-.04l1.536-.762a.382.382,0,0,0,.164-.156A3.661,3.661,0,0,0,22.622,71.853ZM12.3,72.42l-2.275-.007,0,.762,2.277.007v2.289h-.768A1.532,1.532,0,0,0,10,73.947H9.229a3.447,3.447,0,0,0-3.457-3.43H5.388v.762h.384a2.681,2.681,0,0,1,2.689,2.667v.381a.382.382,0,0,0,.384.381H10a.766.766,0,0,1,.768.762H3.578l-2.8-1.735V71.279a.383.383,0,0,1,.556-.341.374.374,0,0,1,.212.341V72.8a.381.381,0,0,0,.186.327l1.92,1.143A.386.386,0,0,0,4.1,74.24a.38.38,0,0,0,.116-.425,7.336,7.336,0,0,1,0-5.068c.056-.147.121-.286.185-.424h0A7.74,7.74,0,0,1,8.959,64.4a.38.38,0,0,0,.27-.364V59.467a.379.379,0,0,0-.113-.269l-.384-.381a.384.384,0,0,0-.272-.112H7.309a.388.388,0,0,0-.213.064l-.89.589-.315-.313L7.507,56.8h1.1l.662,1.314a.384.384,0,0,0,.343.211h4.609a.385.385,0,0,0,.344-.211l.662-1.314h.709l1.28,1.905-.413.615-.833-.551a.388.388,0,0,0-.213-.064h-.768a.384.384,0,0,0-.272.112l-.768.762a.379.379,0,0,0-.113.269V64.8h-.993l-1.04-1.032a.385.385,0,0,0-.6.073l-1.152,1.905a.378.378,0,0,0-.055.2v.293l-.617-.262-.3.7.919.391v.783a.383.383,0,0,0,.017.11,3.275,3.275,0,0,0,.458.926L9.095,69.4l.27.714,1.672-.622a3,3,0,0,0,.295.208,3.028,3.028,0,0,0,.971.385V72.42ZM22,74.806l-1.34.665H17.188l-.277-.824v-.966l.492-.732a.329.329,0,0,1,.274-.146.324.324,0,0,1,.28.155.319.319,0,0,1,.015.318l-.252.5a.379.379,0,0,0,.072.44l.384.381a.384.384,0,0,0,.272.112h1.92v-.762H18.607l-.076-.075.128-.254a1.075,1.075,0,0,0-.048-1.059,1.1,1.1,0,0,0-1.847-.032l-.556.828a.382.382,0,0,0-.065.211v1.143a.379.379,0,0,0,.02.12l.215.642H14.991V72.8h-.768v2.667H13.07V69.755a.382.382,0,0,0-.348-.38,2.264,2.264,0,0,1-.789-.219l.5-.187-.27-.714-.945.352a2.444,2.444,0,0,1-.457-.815v-.4l1,.426.3-.7-1.3-.554V66.05l.844-1.4.8.8a.384.384,0,0,0,.272.112h2.3a.384.384,0,0,0,.272-.112l.8-.8.844,1.4v.514l-1.3.554.3.7,1-.426v.4a2.491,2.491,0,0,1-.333.657l-.714-.2-.211.733.276.078a2.252,2.252,0,0,1-.974.319.384.384,0,0,0-.326.25.378.378,0,0,0,.089.4l.768.762a.384.384,0,0,0,.272.112h4.2A2.683,2.683,0,0,1,22,74.806Z" transform="translate(-0.011 -56.037)" fill="#6b00c3"/>
  </g>
</svg>
