<svg id="Religion" xmlns="http://www.w3.org/2000/svg" width="20.14" height="23.328" viewBox="0 0 20.14 23.328">
  <path id="Path_65065" data-name="Path 65065" d="M54.5,16.07a1.534,1.534,0,0,0-2.168-.076l-.183.171-1.739-1.137.121-2.631a8.892,8.892,0,0,0-.678-4.43c-.52-1.442-1.23-3.244-1.8-4.692-.408-1.036-.761-1.931-.874-2.267l0,0a1.39,1.39,0,0,0-1.7-.954,1.349,1.349,0,0,0-.641.4,1.349,1.349,0,0,0-.641-.4,1.39,1.39,0,0,0-1.7.954v0c-.091.269-.338.9-.592,1.551a.455.455,0,1,0,.847.333c.3-.757.514-1.318.606-1.591a.49.49,0,0,1,.59-.374c.217.061.412.3.31.781L43.2,6.284a2,2,0,0,0-.632.88,23.879,23.879,0,0,0-1.216,3.7.455.455,0,1,0,.888.2,22.926,22.926,0,0,1,1.168-3.553c.238-.571.443-.553.521-.546a.453.453,0,0,1,.408.492c-.021.235-.112,1.09-.2,1.916-.093.869-.18,1.689-.2,1.932A9.7,9.7,0,0,0,44.1,13.4c.321,2.221.719,4.968-2.243,6.8l-3.637-3.4,1.769-1.157a.456.456,0,0,0,.206-.4l-.133-2.891a8.018,8.018,0,0,1,.625-4.078c.164-.455.355-.968.584-1.569a.455.455,0,1,0-.851-.325c-.231.605-.424,1.124-.59,1.584a8.892,8.892,0,0,0-.678,4.43l.121,2.631-1.739,1.137-.183-.171A1.534,1.534,0,0,0,35.26,18.24l5.009,4.677a1.534,1.534,0,0,0,2.259-2.062,5.68,5.68,0,0,0,2.315-2.78,5.68,5.68,0,0,0,2.315,2.78,1.534,1.534,0,0,0,2.259,2.062l5.009-4.677h0a1.538,1.538,0,0,0,.076-2.17Zm-12.73,6.149a.624.624,0,0,1-.881.031l-5.009-4.677a.624.624,0,0,1,.85-.912l5.009,4.677a.624.624,0,0,1,.031.882ZM44.185,6.088l.659-2.835L45.5,6.088a1.353,1.353,0,0,0-.659.358A1.353,1.353,0,0,0,44.185,6.088Zm.659,5.341a3.833,3.833,0,0,1,0,.5A3.84,3.84,0,0,1,44.843,11.429Zm.742,1.968a9.7,9.7,0,0,0,.163-2.086c-.022-.243-.109-1.063-.2-1.932-.088-.827-.179-1.682-.2-1.916a.453.453,0,0,1,.408-.492c.077-.007.283-.026.521.546a22.928,22.928,0,0,1,1.168,3.553.455.455,0,1,0,.888-.2,23.875,23.875,0,0,0-1.216-3.7,2,2,0,0,0-.632-.88L45.419,1.708c-.1-.483.093-.72.31-.781a.49.49,0,0,1,.59.374c.121.359.46,1.22.889,2.308C47.776,5.052,48.483,6.847,49,8.276a8.018,8.018,0,0,1,.625,4.078l-.133,2.891a.456.456,0,0,0,.206.4l1.769,1.157-3.637,3.4c-2.962-1.836-2.565-4.584-2.243-6.8Zm8.22,4.177L48.8,22.25a.624.624,0,0,1-.85-.912l5.009-4.677a.624.624,0,0,1,.85.912Z" transform="translate(-34.773 0)" fill="#6b00c3"/>
</svg>
