<svg xmlns="http://www.w3.org/2000/svg" width="23.663" height="22.831" viewBox="0 0 23.663 22.831">
  <path id="Path_65200" data-name="Path 65200" d="M23.2,17.318H16.513V16.281h.425a.506.506,0,0,0,.505-.506V14.331a.506.506,0,0,0-.505-.506h-4.76v-1.02h2.748a.627.627,0,0,0,.626-.627v-2a.627.627,0,0,0-.626-.627H12.177V9.347a.347.347,0,1,0-.693,0v4.478H6.726a.507.507,0,0,0-.506.506v1.443a.507.507,0,0,0,.506.506h.425v1.037H.465A.466.466,0,0,0,0,17.784V19a.466.466,0,0,0,.465.466H.689v4.62a.347.347,0,0,0,.693,0v-4.62H7.151V31.138H1.382V25.687a.347.347,0,1,0-.693,0v5.589a.557.557,0,0,0,.558.556h21.17a.557.557,0,0,0,.556-.556V19.466H23.2A.466.466,0,0,0,23.663,19V17.784a.466.466,0,0,0-.466-.466Zm-11.02-7.071h2.68v1.865h-2.68ZM7.151,18.773H.693v-.762H7.151Zm15.819-.762v.762H16.513v-.762ZM14.228,31.138H9.434v-.843h4.793v.843ZM10.088,29.6V25.57h1.4V29.6Zm2.09,0V25.57h1.4V29.6Zm2.09,0V25.468a.592.592,0,0,0-.592-.592H9.988a.593.593,0,0,0-.593.592V29.6a.66.66,0,0,0-.654.647v.888h-.9V16.281h3.143a.347.347,0,0,0,0-.693H6.912v-1.07H16.75v1.07H12.531a.347.347,0,0,0,0,.693h3.289V31.138h-.9V30.25A.66.66,0,0,0,14.267,29.6Zm8.012,1.535H16.513V19.466h5.767V31.138Z" transform="translate(0 -9)" fill="#6b18c3"/>
</svg>
