<svg xmlns="http://www.w3.org/2000/svg" width="21.929" height="20.01" viewBox="0 0 21.929 20.01">
  <g id="_20_Love" data-name="20 Love" transform="translate(-0.14 -45)">
    <path id="Path_64990" data-name="Path 64990" d="M7.764,47.771a.321.321,0,1,0,.578-.281l-.809-1.667a.321.321,0,1,0-.578.281Zm3.335-.461a.321.321,0,0,0,.321-.321V45.321a.321.321,0,0,0-.642,0v1.667A.321.321,0,0,0,11.1,47.309Zm2.906.61a.32.32,0,0,0,.428-.149l.809-1.667a.321.321,0,1,0-.578-.281l-.809,1.667a.321.321,0,0,0,.149.429Zm3.476,1.093a.315.315,0,0,0,.14.033.32.32,0,0,0,.289-.181l.448-.923a.321.321,0,1,0-.578-.281l-.448.923a.321.321,0,0,0,.149.429ZM18.56,61.364l-.006-.008-.9-1.028a3.307,3.307,0,0,0-2.9-1.1l-2.7.343a.563.563,0,0,1-.622-.476.527.527,0,0,1,.283-.52l2.5-1.26a2.637,2.637,0,0,0,1.258-3.287l-.168-.439a2.227,2.227,0,0,0-3.114-1.176.52.52,0,0,1-.673-.169.514.514,0,0,1-.077-.405c.057-.252.315-.375.524-.5a3.2,3.2,0,0,1,4.245.925.321.321,0,1,0,.526-.369,3.866,3.866,0,0,0-1.381-1.208,3.824,3.824,0,0,0-3.263-.128A.52.52,0,0,1,12.329,50a3.527,3.527,0,0,1,3.376-.245,3.216,3.216,0,0,1,1.15,1.006l1.786,2.55a.321.321,0,1,0,.526-.368l-1.786-2.55A3.855,3.855,0,0,0,16,49.187a4.066,4.066,0,0,0-4,.262,1.161,1.161,0,0,0-.5,1.413,1.7,1.7,0,0,0-.407.292,1.627,1.627,0,0,0-.407-.292,1.161,1.161,0,0,0-.5-1.413l-.281-.165a3.845,3.845,0,0,0-5.1,1.111l-4.623,6.6a.321.321,0,0,0,.526.368l4.626-6.6a3.2,3.2,0,0,1,4.245-.925c.243.142.6.376.525.723a3.824,3.824,0,0,0-3.263.128A3.866,3.866,0,0,0,5.47,51.9.321.321,0,1,0,6,52.266a3.2,3.2,0,0,1,4.246-.924l.28.164a.52.52,0,0,1-.505.908A2.227,2.227,0,0,0,6.9,53.589l-.167.439a2.637,2.637,0,0,0,1.261,3.288l2.495,1.257a.527.527,0,0,1,.285.521.565.565,0,0,1-.622.476l-1.538-.2a.321.321,0,0,0-.081.637l1.537.2A1.227,1.227,0,0,0,11.1,59.84a1.225,1.225,0,0,0,1.028.368l2.7-.343a2.667,2.667,0,0,1,2.338.886l.9,1.028,2.563,3.108a.321.321,0,1,0,.5-.409ZM11.1,58.239A1.187,1.187,0,0,0,10.782,58L8.287,56.743a2,2,0,0,1-.953-2.487l.167-.438a1.585,1.585,0,0,1,2.215-.836,1.162,1.162,0,0,0,1.382-.227,1.162,1.162,0,0,0,1.382.227,1.585,1.585,0,0,1,2.216.836l.167.438a2,2,0,0,1-.95,2.484L11.414,58a1.179,1.179,0,0,0-.315.238Zm10.907-1.244-2.144-3.061a.321.321,0,1,0-.526.369l2.145,3.061a.321.321,0,1,0,.526-.368ZM7.451,59.227a3.307,3.307,0,0,0-2.9,1.1l-.9,1.03-.006.008L1.071,64.476a.321.321,0,1,0,.5.409L4.13,61.776l.9-1.028a2.667,2.667,0,0,1,2.34-.884.321.321,0,1,0,.081-.637ZM4.289,48.864a.32.32,0,0,0,.289.181.315.315,0,0,0,.14-.033.321.321,0,0,0,.149-.428l-.449-.924a.321.321,0,1,0-.578.281Z" transform="translate(0)" fill="#6b00c3"/>
  </g>
</svg>
