<svg xmlns="http://www.w3.org/2000/svg" width="23.866" height="20.24" viewBox="0 0 23.866 20.24">
  <g id="cigarrete" transform="translate(0 -38.89)">
    <path id="Path_65070" data-name="Path 65070" d="M23.048,55.278h-.423a2.179,2.179,0,0,0-.641-2.859,2.874,2.874,0,0,0-.784-4.739,3.879,3.879,0,0,0-4.457-5.954,4.332,4.332,0,0,0-6.82-1.846.35.35,0,1,0,.446.54,3.631,3.631,0,0,1,5.818,1.87.353.353,0,0,0,.494.224,3.145,3.145,0,0,1,1.408-.329A3.177,3.177,0,0,1,20.347,47.6a.353.353,0,0,0,.171.588,2.174,2.174,0,0,1,.633,3.986.353.353,0,0,0,.065.631,1.478,1.478,0,0,1,.527,2.474H19.719a1.477,1.477,0,0,1-.338-1.68.353.353,0,0,0-.424-.477,2.095,2.095,0,0,1-2.7-1.762.353.353,0,0,0-.571-.231A2.27,2.27,0,0,1,11.992,49.7a.353.353,0,0,0-.584-.208,2.86,2.86,0,1,1-2.507-4.9.352.352,0,0,0,.269-.433A3.64,3.64,0,0,1,9.535,41.4a.35.35,0,0,0-.606-.351,4.342,4.342,0,0,0-.513,2.937,3.561,3.561,0,1,0,3.019,6.37,2.97,2.97,0,0,0,4.237,1.618,2.79,2.79,0,0,0,2.66,1.939q.12,0,.239-.01a2.185,2.185,0,0,0,.265,1.372H5.006a.35.35,0,0,0,0,.7h2.9v2.451H.817A.117.117,0,0,1,.7,58.313V56.1a.117.117,0,0,1,.117-.117H3.6a.35.35,0,0,0,0-.7H.817A.818.818,0,0,0,0,56.1v2.218a.818.818,0,0,0,.817.817H15.879a.35.35,0,1,0,0-.7H8.611V55.978H20.7v2.451H17.28a.35.35,0,1,0,0,.7h5.768a.818.818,0,0,0,.817-.817V56.1a.818.818,0,0,0-.817-.817Zm.117,3.035a.117.117,0,0,1-.117.117H21.4V55.978h1.65a.117.117,0,0,1,.117.117Z" transform="translate(0)" fill="#6b18c3"/>
  </g>
</svg>
