<svg id="zodiac" xmlns="http://www.w3.org/2000/svg" width="12.603" height="18.264" viewBox="0 0 12.603 18.264">
  <path id="pisces" d="M89.073,9.844h2.35V8.411H89.078A14.386,14.386,0,0,1,90.344,3.08,9.534,9.534,0,0,1,91.636.954L91.1.478,90.567,0a14.036,14.036,0,0,0-2.924,8.411H83.025A14.036,14.036,0,0,0,80.1,0L79.033.954A9.535,9.535,0,0,1,80.324,3.08a14.386,14.386,0,0,1,1.267,5.331H79.174V9.844H81.6a14.025,14.025,0,0,1-1.267,5.377,9.04,9.04,0,0,1-1.285,2.07l1.051.974a13.582,13.582,0,0,0,2.936-8.42h4.61a13.581,13.581,0,0,0,2.936,8.42l1.052-.972a9.035,9.035,0,0,1-1.287-2.071A14.025,14.025,0,0,1,89.073,9.844Z" transform="translate(-79.033)" fill="#6b18c3"/>
</svg>
