<svg xmlns="http://www.w3.org/2000/svg" width="22.707" height="24.423" viewBox="0 0 22.707 24.423">
  <g id="ruler" transform="translate(0 0)">
    <path id="Path_64937" data-name="Path 64937" d="M19.663,5.369a1.556,1.556,0,0,0-.4-1.06h0L15.691.437a1.3,1.3,0,0,0-1.949,0L.4,14.914a1.591,1.591,0,0,0,0,2.12l3.567,3.872a1.3,1.3,0,0,0,1.95,0L19.258,6.429a1.557,1.557,0,0,0,.4-1.06Zm-1.315.068-.814.884L16.49,5.189a.609.609,0,0,0-.912,0,.744.744,0,0,0,0,.991l1.042,1.131-.877.952L14.7,7.131a.609.609,0,0,0-.912,0,.744.744,0,0,0,0,.991l1.042,1.131-.877.952L12.911,9.074a.609.609,0,0,0-.912,0,.744.744,0,0,0,0,.991L13.042,11.2l-.877.952-1.043-1.132a.609.609,0,0,0-.912,0,.744.744,0,0,0,0,.991l1.042,1.131-.878.952L9.331,12.958a.609.609,0,0,0-.912,0,.744.744,0,0,0,0,.991l1.042,1.131-.877.952L7.542,14.9a.609.609,0,0,0-.912,0,.744.744,0,0,0,0,.991l1.042,1.131-.877.952L5.752,16.843a.609.609,0,0,0-.912,0,.744.744,0,0,0,0,.991l1.042,1.131-.873.948a.086.086,0,0,1-.128,0L1.315,16.042a.1.1,0,0,1,0-.137L14.653,1.429a.085.085,0,0,1,.128,0L18.347,5.3a.1.1,0,0,1,0,.137Z" transform="translate(0 0)" fill="#6b18c3"/>
    <path id="Path_64938" data-name="Path 64938" d="M220.724,204.738h-3.091a.839.839,0,0,0,0,1.679H218.7l-12.667,12.649V218a.839.839,0,1,0-1.678,0v3.087a.839.839,0,0,0,.839.839h3.091a.839.839,0,0,0,0-1.679h-1.063L219.885,207.6v1.063a.839.839,0,1,0,1.678,0v-3.087A.839.839,0,0,0,220.724,204.738Z" transform="translate(-198.856 -197.507)" fill="#6b18c3"/>
  </g>
</svg>
